[Header]
FileType HTR
DataType HTRS
FileVersion 1
NumSegments 64
NumFrames 4
DataFrameRate 24
EulerRotationOrder ZYX
CalibrationUnits mm
RotationUnits Degrees
GlobalAxisofGravity Y
BoneLengthAxis Y
ScaleFactor 1.0
[SegmentNames&Hierarchy]
Hips	GLOBAL
Spine	Hips
Spine1	Spine
Spine2	Spine1
Neck	Spine2
Head	Neck
LeftEye	Head
RightEye	Head
LeftShoulder	Spine2
LeftArm	LeftShoulder
LeftForeArm	LeftArm
LeftHand	LeftForeArm
LeftHandThumb1	LeftHand
LeftHandThumb2	LeftHandThumb1
LeftHandThumb3	LeftHandThumb2
LeftHandThumb4	LeftHandThumb3
LeftHandIndex1	LeftHand
LeftHandIndex2	LeftHandIndex1
LeftHandIndex3	LeftHandIndex2
LeftHandIndex4	LeftHandIndex3
LeftHandMiddle1	LeftHand
LeftHandMiddle2	LeftHandMiddle1
LeftHandMiddle3	LeftHandMiddle2
LeftHandMiddle4	LeftHandMiddle3
LeftHandRing1	LeftHand
LeftHandRing2	LeftHandRing1
LeftHandRing3	LeftHandRing2
LeftHandRing4	LeftHandRing3
LeftHandPinky1	LeftHand
LeftHandPinky2	LeftHandPinky1
LeftHandPinky3	LeftHandPinky2
LeftHandPinky4	LeftHandPinky3
RightShoulder	Spine2
RightArm	RightShoulder
RightForeArm	RightArm
RightHand	RightForeArm
RightHandPinky1	RightHand
RightHandPinky2	RightHandPinky1
RightHandPinky3	RightHandPinky2
RightHandPinky4	RightHandPinky3
RightHandRing1	RightHand
RightHandRing2	RightHandRing1
RightHandRing3	RightHandRing2
RightHandRing4	RightHandRing3
RightHandMiddle1	RightHand
RightHandMiddle2	RightHandMiddle1
RightHandMiddle3	RightHandMiddle2
RightHandMiddle4	RightHandMiddle3
RightHandIndex1	RightHand
RightHandIndex2	RightHandIndex1
RightHandIndex3	RightHandIndex2
RightHandIndex4	RightHandIndex3
RightHandThumb1	RightHand
RightHandThumb2	RightHandThumb1
RightHandThumb3	RightHandThumb2
RightHandThumb4	RightHandThumb3
LeftUpLeg	Hips
LeftLeg	LeftUpLeg
LeftFoot	LeftLeg
LeftToeBase	LeftFoot
RightUpLeg	Hips
RightLeg	RightUpLeg
RightFoot	RightLeg
RightToeBase	RightFoot
[BasePosition]
Hips	0	0	0	0	0	0	1
Spine	0	0	0	0	0	0	1
Spine1	0	0	0	0	0	0	1
Spine2	0	0	0	0	0	0	1
Neck	0	0	0	0	0	0	1
Head	0	0	0	0	0	0	1
LeftEye	0	0	0	0	0	0	1
RightEye	0	0	0	0	0	0	1
LeftShoulder	0	0	0	0	0	0	1
LeftArm	0	0	0	0	0	0	1
LeftForeArm	0	0	0	0	0	0	1
LeftHand	0	0	0	0	0	0	1
LeftHandThumb1	0	0	0	0	0	0	1
LeftHandThumb2	0	0	0	0	0	0	1
LeftHandThumb3	0	0	0	0	0	0	1
LeftHandThumb4	0	0	0	0	0	0	1
LeftHandIndex1	0	0	0	0	0	0	1
LeftHandIndex2	0	0	0	0	0	0	1
LeftHandIndex3	0	0	0	0	0	0	1
LeftHandIndex4	0	0	0	0	0	0	1
LeftHandMiddle1	0	0	0	0	0	0	1
LeftHandMiddle2	0	0	0	0	0	0	1
LeftHandMiddle3	0	0	0	0	0	0	1
LeftHandMiddle4	0	0	0	0	0	0	1
LeftHandRing1	0	0	0	0	0	0	1
LeftHandRing2	0	0	0	0	0	0	1
LeftHandRing3	0	0	0	0	0	0	1
LeftHandRing4	0	0	0	0	0	0	1
LeftHandPinky1	0	0	0	0	0	0	1
LeftHandPinky2	0	0	0	0	0	0	1
LeftHandPinky3	0	0	0	0	0	0	1
LeftHandPinky4	0	0	0	0	0	0	1
RightShoulder	0	0	0	0	0	0	1
RightArm	0	0	0	0	0	0	1
RightForeArm	0	0	0	0	0	0	1
RightHand	0	0	0	0	0	0	1
RightHandPinky1	0	0	0	0	0	0	1
RightHandPinky2	0	0	0	0	0	0	1
RightHandPinky3	0	0	0	0	0	0	1
RightHandPinky4	0	0	0	0	0	0	1
RightHandRing1	0	0	0	0	0	0	1
RightHandRing2	0	0	0	0	0	0	1
RightHandRing3	0	0	0	0	0	0	1
RightHandRing4	0	0	0	0	0	0	1
RightHandMiddle1	0	0	0	0	0	0	1
RightHandMiddle2	0	0	0	0	0	0	1
RightHandMiddle3	0	0	0	0	0	0	1
RightHandMiddle4	0	0	0	0	0	0	1
RightHandIndex1	0	0	0	0	0	0	1
RightHandIndex2	0	0	0	0	0	0	1
RightHandIndex3	0	0	0	0	0	0	1
RightHandIndex4	0	0	0	0	0	0	1
RightHandThumb1	0	0	0	0	0	0	1
RightHandThumb2	0	0	0	0	0	0	1
RightHandThumb3	0	0	0	0	0	0	1
RightHandThumb4	0	0	0	0	0	0	1
LeftUpLeg	0	0	0	0	0	0	1
LeftLeg	0	0	0	0	0	0	1
LeftFoot	0	0	0	0	0	0	1
LeftToeBase	0	0	0	0	0	0	1
RightUpLeg	0	0	0	0	0	0	1
RightLeg	0	0	0	0	0	0	1
RightFoot	0	0	0	0	0	0	1
RightToeBase	0	0	0	0	0	0	1
[Hips]
176	0.1447743475	1034.154175	13.96283245	-3.544354439	-5.620845318	-3.182647228	1.0
177	0.4450491667	1034.174072	13.75724792	-3.554280281	-5.61803627	-3.192805767	1.0
178	0.7433357835	1034.192505	13.55514431	-3.565450668	-5.614166737	-3.203115225	1.0
179	1.040282369	1034.211426	13.35700035	-3.577370405	-5.609372139	-3.213538647	1.0
[Spine]
176	0	101.8159943	1.315000057	3.669010639	1.485250711	2.962576151	1.0
177	0	101.8159943	1.315000057	3.638524055	1.47649312	2.951164246	1.0
178	0	101.8159943	1.315000057	3.608418465	1.467804909	2.939843416	1.0
179	0	101.8159943	1.315000057	3.578675032	1.459184408	2.92865634	1.0
[Spine1]
176	0	100.8349991	-10.00800037	1.253022194	0.3528167903	1.619289041	1.0
177	0	100.8349991	-10.00800037	1.243994355	0.3489868045	1.615247607	1.0
178	0	100.8349991	-10.00800037	1.235074162	0.3451925814	1.611222029	1.0
179	0	100.8349991	-10.00800037	1.226256371	0.3414331079	1.607213497	1.0
[Spine2]
176	0	91	-13.73399925	1.227774143	0.3758253753	1.622108817	1.0
177	0	91	-13.73399925	1.218738079	0.371981442	1.618128538	1.0
178	0	91	-13.73399925	1.209809661	0.3681731522	1.614163399	1.0
179	0	91	-13.73399925	1.200983763	0.3643996119	1.610214353	1.0
[Neck]
176	0	166.7169952	-25.16200066	5.65750885	-0.1939116716	0.5312718749	1.0
177	0	166.7169952	-25.16200066	5.648671627	-0.18890962	0.5270534158	1.0
178	0	166.7169952	-25.16200066	5.640041828	-0.1839331985	0.5228094459	1.0
179	0	166.7169952	-25.16200066	5.631603241	-0.1789834201	0.5185461044	1.0
[Head]
176	0	96.17900085	16.84999847	-7.991378784	1.200659275	-0.1817120761	1.0
177	0	96.17900085	16.84999847	-7.937730312	1.215423226	-0.1911832541	1.0
178	0	96.17900085	16.84999847	-7.884939194	1.230015993	-0.2005091906	1.0
179	0	96.17900085	16.84999847	-7.832950115	1.244444251	-0.2096991241	1.0
[LeftEye]
176	30.6760006	64.09500122	92.83599854	0	0	0	1.0
177	30.6760006	64.09500122	92.83599854	0	0	0	1.0
178	30.6760006	64.09500122	92.83599854	0	0	0	1.0
179	30.6760006	64.09500122	92.83599854	0	0	0	1.0
[RightEye]
176	-30.6760006	64.09500122	92.83499908	0	0	0	1.0
177	-30.6760006	64.09500122	92.83499908	0	0	0	1.0
178	-30.6760006	64.09500122	92.83499908	0	0	0	1.0
179	-30.6760006	64.09500122	92.83499908	0	0	0	1.0
[LeftShoulder]
176	45.70400238	109.4599991	-26.28000069	4.872263432	-16.89949608	-12.98667622	1.0
177	45.70400238	109.4599991	-26.28000069	4.870631695	-16.87726021	-12.98653221	1.0
178	45.70400238	109.4599991	-26.28000069	4.869102478	-16.85549736	-12.98677158	1.0
179	45.70400238	109.4599991	-26.28000069	4.867667198	-16.83416939	-12.98735237	1.0
[LeftArm]
176	105.923996	-5.24600029	-22.32099915	20.11709785	-3.282321215	-71.38562775	1.0
177	105.923996	-5.24600029	-22.32099915	20.11383438	-3.266286612	-71.37557983	1.0
178	105.923996	-5.24600029	-22.32099915	20.11068916	-3.25039053	-71.36516571	1.0
179	105.923996	-5.24600029	-22.32099915	20.10765076	-3.234629631	-71.35442352	1.0
[LeftForeArm]
176	278.414978	-0.0009999999311	0	-8.164192877e-06	-1.531062484	-0.0002075048251	1.0
177	278.414978	-0.0009999999311	0	-7.060849839e-06	-1.527343869	-0.0002025363647	1.0
178	278.414978	-0.0009999999311	0	-5.503476586e-06	-1.523611307	-0.0001981841488	1.0
179	278.414978	-0.0009999999311	0	-3.588525033e-06	-1.519869089	-0.0001949058351	1.0
[LeftHand]
176	283.2879944	0	0	-33.11146545	-4.702602863	-4.381406784	1.0
177	283.2879944	0	0	-33.08203125	-4.685228825	-4.410867214	1.0
178	283.2879944	0	0	-33.0532074	-4.668058872	-4.439554691	1.0
179	283.2879944	0	0	-33.02494049	-4.651083946	-4.467531681	1.0
[LeftHandThumb1]
176	24.6609993	-15.75	26.8239994	-0.4889889657	2.201390743	4.818541527	1.0
177	24.6609993	-15.75	26.8239994	-0.4889889657	2.201390743	4.818541527	1.0
178	24.6609993	-15.75	26.8239994	-0.4889889657	2.201390743	4.818541527	1.0
179	24.6609993	-15.75	26.8239994	-0.4889889657	2.201390743	4.818541527	1.0
[LeftHandThumb2]
176	32.29800034	-18.64699936	18.64699936	19.88581276	19.96446037	23.26738167	1.0
177	32.29800034	-18.64699936	18.64699936	19.88581276	19.96446037	23.26738167	1.0
178	32.29800034	-18.64699936	18.64699936	19.88581276	19.96446037	23.26738167	1.0
179	32.29800034	-18.64699936	18.64699936	19.88581276	19.96446037	23.26738167	1.0
[LeftHandThumb3]
176	26.52600098	-15.31499958	15.31499958	-13.14535904	5.551738262	7.967928886	1.0
177	26.52600098	-15.31499958	15.31499958	-13.14535904	5.551738262	7.967928886	1.0
178	26.52600098	-15.31499958	15.31499958	-13.14535904	5.551738262	7.967928886	1.0
179	26.52600098	-15.31499958	15.31499958	-13.14535904	5.551738262	7.967928886	1.0
[LeftHandThumb4]
176	19.54599953	-11.28499985	11.28499985	0	0	0	1.0
177	19.54599953	-11.28499985	11.28499985	0	0	0	1.0
178	19.54599953	-11.28499985	11.28499985	0	0	0	1.0
179	19.54599953	-11.28499985	11.28499985	0	0	0	1.0
[LeftHandIndex1]
176	91.09299469	-5.170999527	22.60099792	0.1480516791	-0.9618676901	-7.594518185	1.0
177	91.09299469	-5.170999527	22.60099792	0.1480516791	-0.9618676901	-7.594518185	1.0
178	91.09299469	-5.170999527	22.60099792	0.1480516791	-0.9618676901	-7.594518185	1.0
179	91.09299469	-5.170999527	22.60099792	0.1480516791	-0.9618676901	-7.594518185	1.0
[LeftHandIndex2]
176	36.76399994	0	0	-0.2667043209	1.745171905	-17.37646866	1.0
177	36.76399994	0	0	-0.2667043209	1.745171905	-17.37646866	1.0
178	36.76399994	0	0	-0.2667043209	1.745171905	-17.37646866	1.0
179	36.76399994	0	0	-0.2667043209	1.745171905	-17.37646866	1.0
[LeftHandIndex3]
176	28.83100128	0	0	-0.05742863193	0.817338407	-8.038370132	1.0
177	28.83100128	0	0	-0.05742863193	0.817338407	-8.038370132	1.0
178	28.83100128	0	0	-0.05742863193	0.817338407	-8.038370132	1.0
179	28.83100128	0	0	-0.05742863193	0.817338407	-8.038370132	1.0
[LeftHandIndex4]
176	23.92700005	0	0	0	0	0	1.0
177	23.92700005	0	0	0	0	0	1.0
178	23.92700005	0	0	0	0	0	1.0
179	23.92700005	0	0	0	0	0	1.0
[LeftHandMiddle1]
176	95.33399963	0	0	-0.7942916155	2.538622379	-15.71737862	1.0
177	95.33399963	0	0	-0.7942916155	2.538622379	-15.71737862	1.0
178	95.33399963	0	0	-0.7942916155	2.538622379	-15.71737862	1.0
179	95.33399963	0	0	-0.7942916155	2.538622379	-15.71737862	1.0
[LeftHandMiddle2]
176	36.98199844	0	0	-0.267610997	1.748071074	-17.40625954	1.0
177	36.98199844	0	0	-0.267610997	1.748071074	-17.40625954	1.0
178	36.98199844	0	0	-0.267610997	1.748071074	-17.40625954	1.0
179	36.98199844	0	0	-0.267610997	1.748071074	-17.40625954	1.0
[LeftHandMiddle3]
176	29.50900078	0	0	-0.2992140949	1.84580946	-18.41413307	1.0
177	29.50900078	0	0	-0.2992140949	1.84580946	-18.41413307	1.0
178	29.50900078	0	0	-0.2992140949	1.84580946	-18.41413307	1.0
179	29.50900078	0	0	-0.2992140949	1.84580946	-18.41413307	1.0
[LeftHandMiddle4]
176	28.3390007	0	0	0	0	0	1.0
177	28.3390007	0	0	0	0	0	1.0
178	28.3390007	0	0	0	0	0	1.0
179	28.3390007	0	0	0	0	0	1.0
[LeftHandRing1]
176	91.04499817	-0.4390000105	-18.65100098	-1.184956431	3.436642885	-21.16632462	1.0
177	91.04499817	-0.4390000105	-18.65100098	-1.184956431	3.436642885	-21.16632462	1.0
178	91.04499817	-0.4390000105	-18.65100098	-1.184956431	3.436642885	-21.16632462	1.0
179	91.04499817	-0.4390000105	-18.65100098	-1.184956431	3.436642885	-21.16632462	1.0
[LeftHandRing2]
176	31.54000092	0	0	-0.3849357069	2.085560799	-20.91281319	1.0
177	31.54000092	0	0	-0.3849357069	2.085560799	-20.91281319	1.0
178	31.54000092	0	0	-0.3849357069	2.085560799	-20.91281319	1.0
179	31.54000092	0	0	-0.3849357069	2.085560799	-20.91281319	1.0
[LeftHandRing3]
176	29.37700081	0	0	-0.2818065584	1.792707562	-17.86576271	1.0
177	29.37700081	0	0	-0.2818065584	1.792707562	-17.86576271	1.0
178	29.37700081	0	0	-0.2818065584	1.792707562	-17.86576271	1.0
179	29.37700081	0	0	-0.2818065584	1.792707562	-17.86576271	1.0
[LeftHandRing4]
176	26.47500038	0	0	0	0	0	1.0
177	26.47500038	0	0	0	0	0	1.0
178	26.47500038	0	0	0	0	0	1.0
179	26.47500038	0	0	0	0	0	1.0
[LeftHandPinky1]
176	80.77799988	-4.887000084	-38.06099701	-1.708467126	5.355370045	-27.1653862	1.0
177	80.77799988	-4.887000084	-38.06099701	-1.708467126	5.355370045	-27.1653862	1.0
178	80.77799988	-4.887000084	-38.06099701	-1.708467126	5.355370045	-27.1653862	1.0
179	80.77799988	-4.887000084	-38.06099701	-1.708467126	5.355370045	-27.1653862	1.0
[LeftHandPinky2]
176	36	0	0	-0.2676221728	1.748113751	-17.40663528	1.0
177	36	0	0	-0.2676221728	1.748113751	-17.40663528	1.0
178	36	0	0	-0.2676221728	1.748113751	-17.40663528	1.0
179	36	0	0	-0.2676221728	1.748113751	-17.40663528	1.0
[LeftHandPinky3]
176	21.14200211	0	0	-0.2408525199	1.660349369	-16.50663185	1.0
177	21.14200211	0	0	-0.2408525199	1.660349369	-16.50663185	1.0
178	21.14200211	0	0	-0.2408525199	1.660349369	-16.50663185	1.0
179	21.14200211	0	0	-0.2408525199	1.660349369	-16.50663185	1.0
[LeftHandPinky4]
176	19.75699997	0	0	0	0	0	1.0
177	19.75699997	0	0	0	0	0	1.0
178	19.75699997	0	0	0	0	0	1.0
179	19.75699997	0	0	0	0	0	1.0
[RightShoulder]
176	-45.70000076	109.4620056	-26.28000069	5.20493269	14.8415947	15.48677349	1.0
177	-45.70000076	109.4620056	-26.28000069	5.201196671	14.81332207	15.47899342	1.0
178	-45.70000076	109.4620056	-26.28000069	5.197534561	14.78531265	15.47151852	1.0
179	-45.70000076	109.4620056	-26.28000069	5.193941593	14.75755882	15.46431923	1.0
[RightArm]
176	-105.9280014	-5.248000145	-22.32099915	30.14599228	2.276869059	62.67496872	1.0
177	-105.9280014	-5.248000145	-22.32099915	30.16584015	2.289855957	62.67354965	1.0
178	-105.9280014	-5.248000145	-22.32099915	30.18526077	2.302358627	62.67208862	1.0
179	-105.9280014	-5.248000145	-22.32099915	30.20428467	2.314421177	62.67058945	1.0
[RightForeArm]
176	-278.414978	0	0	2.484787956e-06	6.594625473	6.599950211e-06	1.0
177	-278.414978	0	0	3.757646709e-06	6.597157478	8.225497368e-06	1.0
178	-278.414978	0	0	5.052062534e-06	6.599785805	8.754553164e-06	1.0
179	-278.414978	0	0	6.288339591e-06	6.602498055	7.737234228e-06	1.0
[RightHand]
176	-283.2879944	0	0.0009999999311	-20.0976963	1.665866137	6.030328274	1.0
177	-283.2879944	0	0.0009999999311	-20.09298706	1.668301582	6.056998253	1.0
178	-283.2879944	0	0.0009999999311	-20.08838081	1.670995116	6.083773136	1.0
179	-283.2879944	0	0.0009999999311	-20.08386993	1.673916578	6.110620499	1.0
[RightHandPinky1]
176	-80.76699829	-4.885000229	-38.06000137	-1.507175922	-4.696118355	26.50587463	1.0
177	-80.76699829	-4.885000229	-38.06000137	-1.507175922	-4.696118355	26.50587463	1.0
178	-80.76699829	-4.885000229	-38.06000137	-1.507175922	-4.696118355	26.50587463	1.0
179	-80.76699829	-4.885000229	-38.06000137	-1.507175922	-4.696118355	26.50587463	1.0
[RightHandPinky2]
176	-36	0	0.0009999999311	-0.2127676606	-1.388874292	17.43785858	1.0
177	-36	0	0.0009999999311	-0.2127676606	-1.388874292	17.43785858	1.0
178	-36	0	0.0009999999311	-0.2127676606	-1.388874292	17.43785858	1.0
179	-36	0	0.0009999999311	-0.2127676606	-1.388874292	17.43785858	1.0
[RightHandPinky3]
176	-21.14200211	0	0	-0.1919144988	-1.32059598	16.53641129	1.0
177	-21.14200211	0	0	-0.1919144988	-1.32059598	16.53641129	1.0
178	-21.14200211	0	0	-0.1919144988	-1.32059598	16.53641129	1.0
179	-21.14200211	0	0	-0.1919144988	-1.32059598	16.53641129	1.0
[RightHandPinky4]
176	-19.75699997	0	0	0	0	0	1.0
177	-19.75699997	0	0	0	0	0	1.0
178	-19.75699997	0	0	0	0	0	1.0
179	-19.75699997	0	0	0	0	0	1.0
[RightHandRing1]
176	-91.03599548	-0.4390000105	-18.65100098	-1.045235753	-2.883111477	20.47788429	1.0
177	-91.03599548	-0.4390000105	-18.65100098	-1.045235753	-2.883111477	20.47788429	1.0
178	-91.03599548	-0.4390000105	-18.65100098	-1.045235753	-2.883111477	20.47788429	1.0
179	-91.03599548	-0.4390000105	-18.65100098	-1.045235753	-2.883111477	20.47788429	1.0
[RightHandRing2]
176	-31.54000092	0	0	-0.3066971898	-1.658752441	20.94926834	1.0
177	-31.54000092	0	0	-0.3066971898	-1.658752441	20.94926834	1.0
178	-31.54000092	0	0	-0.3066971898	-1.658752441	20.94926834	1.0
179	-31.54000092	0	0	-0.3066971898	-1.658752441	20.94926834	1.0
[RightHandRing3]
176	-29.37700081	0	0	-0.2245407403	-1.425854325	17.89771652	1.0
177	-29.37700081	0	0	-0.2245407403	-1.425854325	17.89771652	1.0
178	-29.37700081	0	0	-0.2245407403	-1.425854325	17.89771652	1.0
179	-29.37700081	0	0	-0.2245407403	-1.425854325	17.89771652	1.0
[RightHandRing4]
176	-26.47500038	0	0	0	0	0	1.0
177	-26.47500038	0	0	0	0	0	1.0
178	-26.47500038	0	0	0	0	0	1.0
179	-26.47500038	0	0	0	0	0	1.0
[RightHandMiddle1]
176	-95.32500458	0	0	-0.7017197609	-2.087752104	15.0152874	1.0
177	-95.32500458	0	0	-0.7017197609	-2.087752104	15.0152874	1.0
178	-95.32500458	0	0	-0.7017197609	-2.087752104	15.0152874	1.0
179	-95.32500458	0	0	-0.7017197609	-2.087752104	15.0152874	1.0
[RightHandMiddle2]
176	-36.98199844	0	0	-0.213228479	-1.390354872	17.43750381	1.0
177	-36.98199844	0	0	-0.213228479	-1.390354872	17.43750381	1.0
178	-36.98199844	0	0	-0.213228479	-1.390354872	17.43750381	1.0
179	-36.98199844	0	0	-0.213228479	-1.390354872	17.43750381	1.0
[RightHandMiddle3]
176	-29.50900078	0	0	-0.2384106964	-1.470119596	18.44692802	1.0
177	-29.50900078	0	0	-0.2384106964	-1.470119596	18.44692802	1.0
178	-29.50900078	0	0	-0.2384106964	-1.470119596	18.44692802	1.0
179	-29.50900078	0	0	-0.2384106964	-1.470119596	18.44692802	1.0
[RightHandMiddle4]
176	-28.3390007	0	0.0009999999311	0	0	0	1.0
177	-28.3390007	0	0.0009999999311	0	0	0	1.0
178	-28.3390007	0	0.0009999999311	0	0	0	1.0
179	-28.3390007	0	0.0009999999311	0	0	0	1.0
[RightHandIndex1]
176	-91.08300018	-5.167999744	22.60099792	0.1884763837	1.25192976	6.825599194	1.0
177	-91.08300018	-5.167999744	22.60099792	0.1884763837	1.25192976	6.825599194	1.0
178	-91.08300018	-5.167999744	22.60099792	0.1884763837	1.25192976	6.825599194	1.0
179	-91.08300018	-5.167999744	22.60099792	0.1884763837	1.25192976	6.825599194	1.0
[RightHandIndex2]
176	-36.76399994	0	0	-0.2125098109	-1.388050556	17.40767097	1.0
177	-36.76399994	0	0	-0.2125098109	-1.388050556	17.40767097	1.0
178	-36.76399994	0	0	-0.2125098109	-1.388050556	17.40767097	1.0
179	-36.76399994	0	0	-0.2125098109	-1.388050556	17.40767097	1.0
[RightHandIndex3]
176	-28.83100128	0	0	-0.04576345533	-0.650116384	8.053516388	1.0
177	-28.83100128	0	0	-0.04576345533	-0.650116384	8.053516388	1.0
178	-28.83100128	0	0	-0.04576345533	-0.650116384	8.053516388	1.0
179	-28.83100128	0	0	-0.04576345533	-0.650116384	8.053516388	1.0
[RightHandIndex4]
176	-23.92700005	0	0	0	0	0	1.0
177	-23.92700005	0	0	0	0	0	1.0
178	-23.92700005	0	0	0	0	0	1.0
179	-23.92700005	0	0	0	0	0	1.0
[RightHandThumb1]
176	-24.64799881	-15.72700024	26.82600021	-1.658462524	-0.2891407609	-4.221328735	1.0
177	-24.64799881	-15.72700024	26.82600021	-1.658462524	-0.2891407609	-4.221328735	1.0
178	-24.64799881	-15.72700024	26.82600021	-1.658462524	-0.2891407609	-4.221328735	1.0
179	-24.64799881	-15.72700024	26.82600021	-1.658462524	-0.2891407609	-4.221328735	1.0
[RightHandThumb2]
176	-32.29800034	-18.64699936	18.64699936	22.25259209	-23.88967514	-24.282444	1.0
177	-32.29800034	-18.64699936	18.64699936	22.25259209	-23.88967514	-24.282444	1.0
178	-32.29800034	-18.64699936	18.64699936	22.25259209	-23.88967514	-24.282444	1.0
179	-32.29800034	-18.64699936	18.64699936	22.25259209	-23.88967514	-24.282444	1.0
[RightHandThumb3]
176	-26.52600098	-15.31399918	15.31399918	-14.47830296	-6.743862152	-11.36570263	1.0
177	-26.52600098	-15.31399918	15.31399918	-14.47830296	-6.743862152	-11.36570263	1.0
178	-26.52600098	-15.31399918	15.31399918	-14.47830296	-6.743862152	-11.36570263	1.0
179	-26.52600098	-15.31399918	15.31399918	-14.47830296	-6.743862152	-11.36570263	1.0
[RightHandThumb4]
176	-19.54599953	-11.28499985	11.28499985	0	0	0	1.0
177	-19.54599953	-11.28499985	11.28499985	0	0	0	1.0
178	-19.54599953	-11.28499985	11.28499985	0	0	0	1.0
179	-19.54599953	-11.28499985	11.28499985	0	0	0	1.0
[LeftUpLeg]
176	82.07800293	-67.51699829	-15.99599934	-7.939438343	16.21063423	7.591518879	1.0
177	82.07800293	-67.51699829	-15.99599934	-7.946892738	16.19742203	7.587329865	1.0
178	82.07800293	-67.51699829	-15.99599934	-7.953907013	16.18458557	7.58362484	1.0
179	82.07800293	-67.51699829	-15.99599934	-7.960053444	16.17167854	7.580021858	1.0
[LeftLeg]
176	0	-443.7049866	2.845999956	11.77434063	1.294863582	4.589535713	1.0
177	0	-443.7049866	2.845999956	11.78444672	1.304860711	4.58630085	1.0
178	0	-443.7049866	2.845999956	11.79623413	1.313578367	4.582859039	1.0
179	0	-443.7049866	2.845999956	11.80782795	1.322349906	4.579684258	1.0
[LeftFoot]
176	0	-444.2789917	-29.8219986	1.502732396	0.6860628724	-7.176969051	1.0
177	0	-444.2789917	-29.8219986	1.503675103	0.6848852634	-7.165606022	1.0
178	0	-444.2789917	-29.8219986	1.503551364	0.6836308837	-7.153842926	1.0
179	0	-444.2789917	-29.8219986	1.503360987	0.6823265553	-7.141619205	1.0
[LeftToeBase]
176	0	-87.28699493	107.1060028	-4.902870178	4.093040843e-06	2.269838291e-07	1.0
177	0	-87.28699493	107.1060028	-4.908429623	5.354439963e-06	-6.33304353e-07	1.0
178	0	-87.28699493	107.1060028	-4.914435387	6.064697118e-06	-1.453380833e-06	1.0
179	0	-87.28699493	107.1060028	-4.920755386	5.994949333e-06	-2.045667088e-06	1.0
[RightUpLeg]
176	-82.07800293	-67.51699829	-15.99599934	-0.03684488684	-10.50118637	3.254133224	1.0
177	-82.07800293	-67.51699829	-15.99599934	-0.02475785837	-10.50579548	3.245111227	1.0
178	-82.07800293	-67.51699829	-15.99599934	-0.01172942016	-10.51054096	3.236213207	1.0
179	-82.07800293	-67.51699829	-15.99599934	0.003000656841	-10.51531792	3.227425814	1.0
[RightLeg]
176	0	-443.7049866	2.861999989	8.259385109	-9.19853878	-4.611786366	1.0
177	0	-443.7049866	2.861999989	8.228657722	-9.199848175	-4.60222578	1.0
178	0	-443.7049866	2.861999989	8.199339867	-9.201045036	-4.593080044	1.0
179	0	-443.7049866	2.861999989	8.168869972	-9.202342987	-4.583953857	1.0
[RightFoot]
176	0	-444.2770081	-29.83799934	-3.876349211	-1.210412383	3.252776384	1.0
177	0	-444.2770081	-29.83799934	-3.842546463	-1.211592317	3.258576155	1.0
178	0	-444.2770081	-29.83799934	-3.809885979	-1.213866472	3.264668941	1.0
179	0	-444.2770081	-29.83799934	-3.777077198	-1.216868401	3.270863771	1.0
[RightToeBase]
176	0	-87.28699493	107.1060028	-7.099215508	1.063550189e-05	-1.488020303e-06	1.0
177	0	-87.28699493	107.1060028	-7.096528053	6.465623301e-06	-1.059526085e-06	1.0
178	0	-87.28699493	107.1060028	-7.093880653	1.532580427e-06	-5.82061773e-07	1.0
179	0	-87.28699493	107.1060028	-7.091490746	-3.036000635e-06	-1.608595142e-07	1.0
[EndOfFile]
